<svg width="168" height="159" viewBox="0 0 168 159" fill="none" xmlns="http://www.w3.org/2000/svg">
<g filter="url(#filter0_f_138_163)">
<g filter="url(#filter1_f_138_163)">
<path d="M60.2325 107.341L60.1945 106.059L60.2428 104.774L60.3772 103.492L60.5974 102.214L60.9027 100.945L61.2924 99.6878L61.7654 98.4463L62.3203 97.2237L62.9556 96.0234L63.6697 94.8487L64.4605 93.7028L65.3259 92.5887L66.2635 91.5097L67.2707 90.4686L68.3448 89.4682L69.4828 88.5114L70.6817 87.6008L71.938 86.7388L73.2485 85.9278L74.6094 85.17L76.0171 84.4676L77.4678 83.8224L78.9573 83.2362L80.4817 82.7106L82.0367 82.247L83.6181 81.8468L85.2216 81.511L86.8428 81.2405L88.4772 81.0362L90.1204 80.8984L91.7678 80.8277L93.4149 80.8242L95.0573 80.8879L96.6904 81.0186L98.3097 81.2161L99.9108 81.4797L101.489 81.8087L103.041 82.2022L104.561 82.6592L106.046 83.1784L107.492 83.7584L108.894 84.3975L110.25 85.094L111.554 85.8461L112.803 86.6516L113.995 87.5084L115.126 88.4141L116.192 89.3662L117.191 90.3621L118.12 91.3991L118.977 92.4743L119.758 93.5848L120.463 94.7276L121.089 95.8995L121.634 97.0972L122.097 98.3176L122.477 99.5573L122.772 100.813L122.982 102.081L123.106 103.358L123.144 104.64L123.096 105.924L122.962 107.207L122.742 108.485L122.436 109.754L122.046 111.011L121.574 112.252L121.019 113.475L120.383 114.675L119.669 115.85L118.878 116.996L118.013 118.11L117.075 119.189L116.068 120.23L114.994 121.231L113.856 122.187L112.657 123.098L111.401 123.96L110.09 124.771L108.729 125.529L107.322 126.231L105.871 126.876L104.382 127.463L102.857 127.988L101.302 128.452L99.7207 128.852L98.1172 129.188L96.496 129.458L94.8616 129.663L93.2185 129.8L91.5711 129.871L89.9239 129.875L88.2816 129.811L86.6485 129.68L85.0292 129.483L83.4281 129.219L81.8496 128.89L80.298 128.497L78.7775 128.04L77.2925 127.52L75.8468 126.94L74.4444 126.301L73.0893 125.605L71.7852 124.853L70.5355 124.047L69.3437 123.19L68.2132 122.285L67.1469 121.333L66.1478 120.337L65.2187 119.3L64.3621 118.224L63.5804 117.114L62.8756 115.971L62.2498 114.799L61.7046 113.602L61.2415 112.381L60.8618 111.141L60.5666 109.886L60.3566 108.618L60.2325 107.341Z" fill="#5F85DB"/>
</g>
<g filter="url(#filter2_f_138_163)">
<path d="M24.6025 77.1646L33.5568 63.5585L22.881 71.8533L33.085 59.8794L23.0098 64.746L33.7066 55.2922L24.9793 56.3696L35.3757 50.1371L28.6435 47.3455L37.9683 44.7965L33.7306 38.3429L41.2923 39.6665L39.8633 30.0294L45.101 35.1275L46.5867 23.0217L49.1121 31.5161L53.4023 17.8395L53.028 29.1002L59.8046 14.8672L56.5583 28.059L65.3186 14.3251L59.4412 28.4697L69.5356 16.2535L61.4629 30.3019L72.1426 20.5093L62.4734 33.4196L72.9465 26.777L62.3978 37.5916L71.8875 34.5916L61.2417 42.5085L69.0441 43.3737L59.0908 47.8057L64.6274 52.4718L56.1047 53.0902L58.9647 61.2112L52.5048 57.9702L52.4762 68.9438L48.5582 62.0837L45.643 75.096L44.5574 65.1257L38.972 79.2117L40.7993 66.8704L32.9578 80.9854L37.5625 67.1886L28.0466 80.2858L35.0872 66.0567L24.6025 77.1646Z" fill="#5F85DB"/>
</g>
<g filter="url(#filter3_f_138_163)">
<path d="M58.0844 41.395L64.3627 38.0108L53.5907 34.9395L62.0055 33.2221L51.8237 28.6763L61.7508 28.7532L52.9142 23.0701L63.6175 24.9355L56.7815 18.5365L67.4671 22.0522L63.1388 15.412L73.0141 20.3171L71.5145 13.9281L79.8472 19.8589L81.2874 14.195L87.4596 20.7116L91.7328 16.1928L95.2866 22.8119L102.076 19.7733L102.748 26.004L111.55 24.6711L109.29 30.0513L119.452 30.5229L114.428 34.6536L125.195 36.8947L117.78 39.4694L128.355 43.3138L119.098 44.1417L128.697 49.3043L118.285 48.324L126.194 54.4219L115.399 51.706L121.034 58.2869L110.657 54.0369L113.598 60.6128L104.409 55.1439L104.439 61.227L97.1181 54.9448L94.2345 60.084L89.3258 53.4545L83.7425 57.2686L81.6098 50.7833L73.7409 52.9896L74.5424 47.1296L64.9714 47.5643L68.6476 42.7642L58.0844 41.395Z" fill="#5F85DB"/>
</g>
<g filter="url(#filter4_f_138_163)">
<circle cx="80.9586" cy="77.3801" r="45.816" fill="#5F85DB"/>
<circle cx="80.9586" cy="77.3801" r="45.816" stroke="#12131A" stroke-width="13"/>
</g>
<g filter="url(#filter5_f_138_163)">
<ellipse cx="80.673" cy="76.4939" rx="77.8872" ry="5.49792" transform="rotate(-12 80.673 76.4939)" fill="#0D0F12"/>
</g>
</g>
<defs>
<filter id="filter0_f_138_163" x="0.479004" y="9.9281" width="160.388" height="123.947" filterUnits="userSpaceOnUse" color-interpolation-filters="sRGB">
<feFlood flood-opacity="0" result="BackgroundImageFix"/>
<feBlend mode="normal" in="SourceGraphic" in2="BackgroundImageFix" result="shape"/>
<feGaussianBlur stdDeviation="2" result="effect1_foregroundBlur_138_163"/>
</filter>
<filter id="filter1_f_138_163" x="56.1946" y="76.8242" width="70.9497" height="57.0504" filterUnits="userSpaceOnUse" color-interpolation-filters="sRGB">
<feFlood flood-opacity="0" result="BackgroundImageFix"/>
<feBlend mode="normal" in="SourceGraphic" in2="BackgroundImageFix" result="shape"/>
<feGaussianBlur stdDeviation="2" result="effect1_foregroundBlur_138_163"/>
</filter>
<filter id="filter2_f_138_163" x="18.8811" y="10.3251" width="58.0654" height="74.6603" filterUnits="userSpaceOnUse" color-interpolation-filters="sRGB">
<feFlood flood-opacity="0" result="BackgroundImageFix"/>
<feBlend mode="normal" in="SourceGraphic" in2="BackgroundImageFix" result="shape"/>
<feGaussianBlur stdDeviation="2" result="effect1_foregroundBlur_138_163"/>
</filter>
<filter id="filter3_f_138_163" x="47.8237" y="9.9281" width="84.873" height="55.299" filterUnits="userSpaceOnUse" color-interpolation-filters="sRGB">
<feFlood flood-opacity="0" result="BackgroundImageFix"/>
<feBlend mode="normal" in="SourceGraphic" in2="BackgroundImageFix" result="shape"/>
<feGaussianBlur stdDeviation="2" result="effect1_foregroundBlur_138_163"/>
</filter>
<filter id="filter4_f_138_163" x="24.6426" y="21.0641" width="112.632" height="112.632" filterUnits="userSpaceOnUse" color-interpolation-filters="sRGB">
<feFlood flood-opacity="0" result="BackgroundImageFix"/>
<feBlend mode="normal" in="SourceGraphic" in2="BackgroundImageFix" result="shape"/>
<feGaussianBlur stdDeviation="2" result="effect1_foregroundBlur_138_163"/>
</filter>
<filter id="filter5_f_138_163" x="0.479004" y="55.426" width="160.388" height="42.1358" filterUnits="userSpaceOnUse" color-interpolation-filters="sRGB">
<feFlood flood-opacity="0" result="BackgroundImageFix"/>
<feBlend mode="normal" in="SourceGraphic" in2="BackgroundImageFix" result="shape"/>
<feGaussianBlur stdDeviation="2" result="effect1_foregroundBlur_138_163"/>
</filter>
</defs>
</svg>
